<svg width="113" height="54" viewBox="0 0 113 54" fill="none" xmlns="http://www.w3.org/2000/svg">
<path d="M54.2466 53.8679C54.8709 53.7177 55.43 53.3328 55.7934 52.807C56.3431 52.0372 56.3431 51.9621 56.399 46.5919L56.4549 41.6631L83.0115 41.6161C107.714 41.5692 109.605 41.5598 110.081 41.4096C111.087 41.0904 111.767 40.3675 112 39.3911C112.103 38.9404 112.131 36.7154 112.131 26.9797C112.131 14.005 112.149 14.4463 111.59 13.6483C111.301 13.2258 110.658 12.7658 110.127 12.5874C109.82 12.4935 104.816 12.456 83.1047 12.4184L56.4549 12.3715L56.4084 7.4426C56.3618 3.29296 56.3338 2.43862 56.2034 2.02553C55.8959 1.0022 55.1504 0.335633 54.0509 0.0915362C53.5011 -0.0305121 53.352 -0.0305121 52.7929 0.0915362C52.2245 0.222973 48.5346 1.95043 34.9767 8.42837C33.9797 8.90718 30.4295 10.5971 27.1029 12.1837C16.5175 17.2346 10.4794 20.1075 8.65306 20.9806C7.67466 21.45 6.54716 21.9945 6.13717 22.1823C3.53742 23.4028 1.51539 24.3979 1.17994 24.642C0.62085 25.0551 0.266762 25.609 0.0990372 26.3507C-0.0314178 26.9422 -0.0314178 27.0642 0.0897217 27.6181C0.387901 28.9043 0.816536 29.2799 3.31379 30.4722C4.35741 30.9698 6.54716 32.0119 8.18716 32.7911C9.82714 33.5797 12.2126 34.7157 13.4985 35.3259C14.7751 35.9362 16.3312 36.6779 16.9462 36.9689C17.5612 37.2693 18.7539 37.8326 19.6018 38.2363C20.4498 38.64 21.5773 39.1752 22.1177 39.438C23.9441 40.3111 28.3888 42.4329 35.3494 45.747C39.1699 47.5683 43.1673 49.4742 44.2482 49.9905C45.3198 50.5069 46.7734 51.2016 47.463 51.5208C48.1525 51.8494 49.4291 52.4596 50.305 52.8821C51.8891 53.6426 52.942 54.0181 53.4731 53.9993C53.6222 53.9899 53.9763 53.9336 54.2466 53.8679ZM52.9141 52.9384C52.4947 52.8258 51.2741 52.2531 45.2266 49.3615C43.6239 48.5917 38.9555 46.3666 26.9165 40.6303C23.5807 39.0437 18.0923 36.4244 14.7098 34.8096C11.3274 33.1948 7.11557 31.1857 5.34513 30.3501C1.99062 28.7541 1.65517 28.5663 1.34766 28.172C0.88176 27.5806 0.872444 26.5009 1.32903 25.8719C1.66448 25.4119 1.69244 25.3931 8.14056 22.3231C11.0385 20.943 14.2253 19.4221 15.2223 18.9433C16.2194 18.4645 19.7602 16.7746 23.0961 15.188C26.4227 13.6013 29.9915 11.9021 31.0165 11.4045C32.0415 10.9163 33.6163 10.1652 34.5108 9.74274C38.2846 7.94957 41.4435 6.43805 44.155 5.14246C53.4359 0.711166 52.7557 1.01159 53.4266 1.01159C54.3863 1.01159 55.0479 1.48101 55.2809 2.33535C55.3461 2.57944 55.3834 4.48527 55.3834 8.03406V13.3572L82.2195 13.3572C101.294 13.3572 109.186 13.3854 109.54 13.4605C110.202 13.6013 110.677 13.9393 110.938 14.4745L111.152 14.9063L111.18 26.7356C111.189 34.7157 111.171 38.7151 111.106 39.0437C110.984 39.607 110.565 40.1703 110.09 40.3862C109.782 40.5271 107.406 40.5365 82.5922 40.5834L55.43 40.6303L55.3834 46.1695C55.3368 51.2204 55.3181 51.7367 55.169 52.009C54.9547 52.4221 54.4422 52.8164 53.967 52.9478C53.4359 53.0887 53.4452 53.0887 52.9141 52.9384Z" fill="#D4CEC5"/>
<path d="M53.4269 50.0189C53.4269 49.4556 53.3896 49.127 53.3244 49.127C53.2778 49.127 52.989 49.249 52.7001 49.3899C52.4112 49.5401 51.9733 49.7091 51.731 49.7748C51.4887 49.8499 51.3117 49.9344 51.3303 49.9813C51.3956 50.0846 53.1381 50.9108 53.2965 50.9108C53.399 50.9108 53.4269 50.7136 53.4269 50.0189Z" fill="#D4CEC5"/>
<path d="M49.1498 48.526C49.4293 48.4228 49.83 48.2256 50.035 48.0942C50.4357 47.8313 51.0693 47.5309 51.2091 47.5309C51.2557 47.5309 51.4327 47.4276 51.5911 47.3056C51.7961 47.146 51.9638 47.0896 52.1409 47.1272C52.3272 47.1647 52.5229 47.0802 52.905 46.8267L53.4268 46.4794V44.9866C53.4268 43.2967 53.4547 43.3531 52.7093 43.7192C52.467 43.8413 51.9918 44.076 51.6563 44.2262C51.3209 44.3858 50.9295 44.6017 50.7711 44.705C50.5941 44.827 50.417 44.874 50.2679 44.8364C50.1189 44.7989 50.007 44.827 49.9418 44.9209C49.8859 44.996 49.6902 45.1368 49.5132 45.2307C49.3361 45.3246 49.1311 45.4748 49.0659 45.5781C48.982 45.6908 48.8423 45.7471 48.6466 45.7377C48.4509 45.7283 48.0968 45.8504 47.6496 46.0945C47.2675 46.3104 46.8296 46.5075 46.6898 46.5357C46.5407 46.5733 46.3171 46.7047 46.1866 46.8361C46.0282 46.9957 45.8698 47.0615 45.7114 47.0427C45.1243 46.977 45.525 47.2586 46.96 47.9533C47.8173 48.3664 48.5441 48.7138 48.572 48.7138C48.6 48.7232 48.8609 48.6387 49.1498 48.526Z" fill="#D4CEC5"/>
<path d="M42.8317 45.6346C42.8504 45.5689 43.1206 45.4281 43.4188 45.3342C43.7263 45.2309 44.071 45.0713 44.1922 44.9774C44.3133 44.8835 44.481 44.8084 44.5742 44.8084C44.6581 44.8084 45.0867 44.6301 45.5153 44.4047C45.944 44.1794 46.4192 43.9541 46.5776 43.8884C46.7267 43.832 47.0062 43.7006 47.1833 43.5973C47.4815 43.4283 48.6183 42.8838 49.6712 42.405C49.8948 42.3111 50.0719 42.1985 50.0719 42.1609C50.0719 42.114 50.1371 42.0858 50.221 42.0858C50.3887 42.0858 50.9757 41.8323 51.1901 41.6633C51.2646 41.607 51.5628 41.485 51.8423 41.3817C52.3828 41.2033 52.7369 41.0249 53.1655 40.7339C53.4264 40.5649 53.4264 40.5461 53.4264 39.5885V38.6215L55.6348 38.584C57.7221 38.5558 58.4955 38.4713 58.7843 38.246C58.9893 38.0676 60.1075 37.5043 60.3591 37.448C60.5175 37.4104 60.7877 37.2508 60.9834 37.1006C61.1698 36.9504 61.412 36.8284 61.5145 36.8284C61.617 36.8284 61.8872 36.7251 62.1016 36.5936C62.3252 36.4622 62.5768 36.3589 62.6513 36.3589C62.8284 36.3589 63.8627 35.8707 63.8627 35.7956C63.8627 35.7393 64.1329 35.6079 64.8877 35.3074C65.0181 35.2511 65.2231 35.1572 65.3536 35.1009C65.484 35.0352 65.7636 34.9319 65.9779 34.8568C66.2202 34.7817 66.3786 34.669 66.4159 34.547C66.4438 34.4249 66.509 34.378 66.6115 34.4156C66.7606 34.4813 67.7763 34.1339 67.7763 34.0212C67.7763 33.9649 68.8106 33.4486 68.9317 33.4486C68.969 33.4486 69.3604 33.2796 69.8076 33.0636C70.2549 32.8477 70.8233 32.5848 71.0842 32.4628C71.3358 32.3407 71.6526 32.1342 71.7738 32.0028C71.9135 31.8525 72.0626 31.7774 72.1651 31.8056C72.3049 31.8525 72.9385 31.5897 73.5535 31.2423C74.4574 30.7259 75.678 30.1626 75.8924 30.1626C76.0321 30.1626 76.1812 30.1251 76.2092 30.0688C76.2371 30.0218 76.3583 29.9749 76.4608 29.9749C76.5633 29.9749 76.7496 29.8716 76.8708 29.7402C76.9919 29.6087 77.1596 29.5055 77.2435 29.5055C77.3274 29.5055 77.5417 29.374 77.7187 29.2144C77.933 29.0266 78.1194 28.9422 78.2312 28.9703C78.4176 29.0266 78.9953 28.8201 79.2376 28.623C79.3121 28.5572 79.5823 28.4258 79.8432 28.3413C80.0948 28.2474 80.4769 28.0972 80.6819 28.0033C80.8869 27.9188 81.2875 27.7404 81.5671 27.6184C81.8466 27.4964 82.3685 27.2335 82.7319 27.0363C83.0859 26.8392 83.6171 26.5763 83.8966 26.4449C84.1762 26.3228 84.6141 26.1163 84.875 25.9942C85.1266 25.8722 85.5646 25.6938 85.8441 25.6093C86.4218 25.4215 86.5896 25.337 87.158 24.9427C87.3909 24.7925 87.7636 24.6047 87.9873 24.5296C88.2109 24.4545 88.4532 24.3325 88.5277 24.2668C88.6489 24.1447 88.9936 23.9851 89.5061 23.8067C89.5993 23.7786 89.6738 23.7222 89.6738 23.6753C89.6738 23.6377 89.8323 23.572 90.0186 23.5345C90.2143 23.4969 90.4752 23.3749 90.5963 23.2528C90.7175 23.1308 90.9132 23.0275 91.025 23.0275C91.1461 23.0275 91.2672 22.9618 91.2952 22.8773C91.3325 22.774 91.4163 22.7459 91.5468 22.774C91.6493 22.8022 91.845 22.7646 91.9847 22.6895C92.1245 22.6144 92.3016 22.5581 92.3854 22.5581C92.4693 22.5581 92.609 22.4736 92.7022 22.3703C92.7954 22.2671 92.9259 22.1826 92.9911 22.1826C93.2427 22.1826 94.0254 21.7789 94.3049 21.5066C94.5006 21.3188 94.6497 21.2437 94.7615 21.2813C94.8547 21.3188 95.0877 21.2437 95.3299 21.0935C95.5536 20.9621 95.9915 20.7743 96.3083 20.671C96.6252 20.5678 97.0258 20.3612 97.2122 20.211C97.3986 20.0702 97.6501 19.92 97.7806 19.8824C98.1626 19.7885 98.7124 19.535 98.7124 19.4599C98.7124 19.4224 98.8708 19.3567 99.0572 19.3191C99.3833 19.2628 99.8026 19.075 101.918 18.0329C102.328 17.8358 102.71 17.6762 102.784 17.6762C102.859 17.6762 103.101 17.5541 103.325 17.3945C103.549 17.2443 103.781 17.1129 103.837 17.1129C103.986 17.1129 105.086 16.5402 105.123 16.4463C105.142 16.3993 105.244 16.3618 105.356 16.3618C105.645 16.3618 107.192 15.6764 107.155 15.5638C107.136 15.5075 105.803 15.4605 103.474 15.4417L99.8119 15.423L99.1969 15.7422C98.8522 15.9205 98.3024 16.1834 97.967 16.3242C97.6315 16.4651 97.1842 16.7092 96.9699 16.85C96.7556 17.0002 96.5413 17.1035 96.504 17.0941C96.3549 17.0471 95.4883 17.4414 94.9665 17.7888C94.6777 17.986 94.3702 18.1456 94.2956 18.1456C94.2211 18.1456 94.1279 18.1925 94.0999 18.2395C94.072 18.2958 93.9229 18.3333 93.7831 18.3333C93.634 18.3333 93.4663 18.3991 93.4011 18.4742C93.3359 18.5493 93.224 18.615 93.1495 18.615C93.0656 18.615 92.7488 18.7464 92.432 18.9154C92.1245 19.075 91.6959 19.291 91.4909 19.3942C91.2859 19.4975 91.0343 19.6571 90.9318 19.751C90.82 19.8449 90.5963 19.9575 90.4193 19.9857C90.0373 20.0608 89.2732 20.4457 89.1054 20.6429C88.9657 20.8119 88.7607 20.8119 88.7234 20.6335C88.7048 20.5208 88.5743 20.5865 88.2295 20.8682C87.9686 21.0747 87.6891 21.3188 87.5959 21.4033C87.4655 21.5348 87.4002 21.5441 87.2511 21.4597C87.1114 21.3658 87.0182 21.3939 86.6734 21.638C86.4591 21.7976 86.2541 21.9666 86.2448 22.0136C86.2261 22.0511 86.133 22.0887 86.0398 22.0887C85.9466 22.0887 85.6857 22.1826 85.4621 22.2858C84.8284 22.5956 84.5209 22.7271 84.26 22.7834C84.1203 22.8116 83.8034 22.99 83.5425 23.1683C83.2723 23.3467 83.0114 23.4969 82.9462 23.4969C82.8809 23.4969 82.5269 23.6377 82.1728 23.8161C81.8094 23.9945 81.2689 24.2292 80.9614 24.3419C80.3091 24.5766 79.5451 24.9615 79.2842 25.1868C79.1817 25.2807 78.9301 25.384 78.7251 25.4215C78.5294 25.4591 78.2498 25.5624 78.1101 25.6656C77.9703 25.7595 77.8212 25.844 77.7746 25.844C77.7187 25.844 77.4951 25.9848 77.2714 26.1632C76.8708 26.473 76.2278 26.7453 76.0042 26.7077C75.9483 26.6983 75.8737 26.7265 75.8365 26.7828C75.8085 26.8298 75.706 26.8767 75.6128 26.8767C75.5103 26.8767 75.0631 27.0645 74.6158 27.2992C74.1592 27.5339 73.7492 27.7217 73.7119 27.7217C73.4976 27.7217 72.9199 28.069 72.7149 28.3131C72.5006 28.5572 72.4447 28.576 72.2863 28.4727C72.1372 28.3789 72.0347 28.407 71.6154 28.6981C71.3358 28.8858 70.9538 29.083 70.7488 29.1393C70.5438 29.205 70.3388 29.3083 70.2829 29.3834C70.227 29.4491 70.1151 29.5055 70.0406 29.5055C69.9754 29.5055 69.8915 29.5712 69.8636 29.6463C69.8263 29.7214 69.7238 29.7871 69.6306 29.7871C69.3511 29.7871 68.4099 30.1439 68.1304 30.3504C67.9906 30.4537 67.8136 30.5382 67.7483 30.5382C67.5806 30.5382 67.2731 30.6978 66.8818 30.9794C66.7233 31.0921 66.5649 31.1672 66.5277 31.1296C66.4997 31.1015 66.1643 31.2235 65.7915 31.4019C65.4281 31.5897 64.8784 31.8338 64.5895 31.9464C64.2913 32.0591 64.0118 32.2093 63.9559 32.275C63.9 32.3407 63.6577 32.4628 63.4154 32.5567C62.9775 32.7163 61.4679 33.4486 61.1138 33.6645C61.0113 33.7208 60.8064 33.8616 60.6479 33.9649C60.4989 34.0682 60.2379 34.1527 60.0795 34.1621C59.9118 34.1621 59.6602 34.2466 59.5205 34.3498C59.3807 34.4437 59.2036 34.5752 59.1198 34.6221C59.0452 34.6784 58.8309 34.8099 58.6539 34.9225C58.4768 35.0352 58.2998 35.1103 58.2532 35.0821C58.2066 35.054 58.0296 35.1385 57.8525 35.2699C57.6848 35.4013 57.4705 35.514 57.3959 35.514C57.3121 35.514 57.2468 35.5515 57.2468 35.5891C57.2468 35.7018 56.8089 35.8895 56.5387 35.8895C56.4175 35.8895 56.2405 35.9271 56.1473 35.974C56.0634 36.021 55.7839 36.1336 55.5416 36.2181C55.2994 36.3026 54.9732 36.481 54.8241 36.6124C54.675 36.7345 54.4048 36.8659 54.2278 36.8941C54.0414 36.9222 53.8923 37.0067 53.8737 37.0912C53.855 37.1663 53.7339 37.2414 53.5941 37.2602C53.445 37.2696 53.2121 37.3729 53.063 37.4761C52.9139 37.5888 52.7276 37.6733 52.653 37.6733C52.5785 37.6733 52.1591 37.8423 51.7212 38.0488C51.2832 38.2554 50.8639 38.4244 50.7801 38.4244C50.6962 38.4244 50.5844 38.5089 50.5192 38.6121C50.4539 38.7154 50.3048 38.7999 50.193 38.7999C50.0626 38.7999 49.9787 38.8562 49.9787 38.9407C49.9787 39.0252 49.8483 39.0909 49.6246 39.1285C49.4383 39.166 49.0469 39.3163 48.758 39.4665C48.4692 39.6167 48.1617 39.7387 48.0871 39.7387C48.0126 39.7387 47.733 39.8889 47.4721 40.0673C47.2112 40.2457 46.9503 40.3959 46.8944 40.3959C46.8292 40.3959 46.5683 40.4992 46.3074 40.6212C46.0465 40.7433 45.5247 40.9592 45.1519 41.1C44.7792 41.2409 44.3972 41.4286 44.3133 41.5225C44.2294 41.6164 44.0244 41.7197 43.8754 41.7572C43.4188 41.8605 42.487 42.3393 42.2447 42.6022C42.0863 42.7712 41.9279 42.8369 41.6856 42.8369C41.4713 42.8369 41.2104 42.9214 41.0147 43.0528C40.8376 43.1749 40.4836 43.3532 40.232 43.4471C39.9804 43.5504 39.7568 43.6537 39.7288 43.7006C39.7008 43.7382 39.5145 43.832 39.3188 43.9165C39.1231 44.001 38.9927 44.1043 39.0393 44.1419C39.2349 44.3202 42.3658 45.7473 42.5708 45.7473C42.6826 45.7473 42.8038 45.6909 42.8317 45.6346Z" fill="#D4CEC5"/>
<path d="M49.4197 43.8695C49.4197 43.8226 49.3731 43.7757 49.3265 43.7757C49.2706 43.7757 49.2334 43.8226 49.2334 43.8695C49.2334 43.9259 49.2706 43.9634 49.3265 43.9634C49.3731 43.9634 49.4197 43.9259 49.4197 43.8695Z" fill="#D4CEC5"/>
<path d="M36.2813 42.3012C36.6261 42.1416 37.6697 41.6252 38.2568 41.3248C38.4431 41.2309 38.6295 41.1089 38.6575 41.0525C38.6947 40.9962 38.7506 40.9774 38.7972 41.0056C38.9463 41.0995 39.5893 40.8836 39.9713 40.6113C40.1763 40.4799 40.6422 40.2264 41.0243 40.0574C41.4063 39.8978 41.7511 39.6912 41.7977 39.6067C41.8442 39.5222 41.9747 39.4565 42.0865 39.4565C42.2449 39.4565 43.2792 38.9871 43.9222 38.621C44.1551 38.4895 45.0683 38.1328 45.3665 38.0577C45.8417 37.9356 46.6897 37.485 46.9972 37.2033C47.1649 37.0437 47.3512 36.9217 47.4165 36.9217C47.491 36.9217 47.5749 36.8841 47.6028 36.8278C47.6308 36.7808 47.7706 36.7339 47.9103 36.7245C48.0501 36.7245 48.3949 36.6025 48.6744 36.4523C48.954 36.302 49.3826 36.0861 49.6249 35.9641C49.8765 35.8514 50.0721 35.7012 50.0721 35.6449C50.0721 35.5416 50.2305 35.4946 50.8921 35.382C51.0039 35.3632 51.181 35.2787 51.2742 35.1942C51.358 35.1097 51.4792 35.044 51.5351 35.044C51.591 35.044 51.7401 34.9595 51.8612 34.8562C51.9917 34.7624 52.1221 34.6966 52.1501 34.7248C52.178 34.753 52.588 34.584 53.0632 34.3493C53.5292 34.1146 53.9951 33.9174 54.0882 33.9174C54.1907 33.9174 54.2653 33.8799 54.2653 33.8329C54.2653 33.7296 55.1319 33.3541 55.3741 33.3541C55.4766 33.3541 55.5791 33.3166 55.6164 33.2696C55.6444 33.2227 55.9053 33.0631 56.2034 32.9222C56.4923 32.7814 56.8464 32.6124 56.9862 32.5467C57.1166 32.4716 57.2937 32.4153 57.3589 32.4153C57.4334 32.4153 57.6198 32.2932 57.7689 32.1336C57.918 31.9834 58.1137 31.852 58.1975 31.852C58.2814 31.852 58.3839 31.8144 58.4118 31.7581C58.4398 31.7112 58.5516 31.6642 58.6541 31.6642C58.7566 31.6642 59.325 31.4295 59.9027 31.1479C60.4898 30.8662 61.0116 30.6315 61.0489 30.6315C61.0955 30.6315 61.4123 30.4813 61.7477 30.3029C62.0832 30.1245 62.4093 29.9743 62.4652 29.9743C62.5211 29.9743 62.7075 29.871 62.8752 29.7396C63.0429 29.6082 63.22 29.5049 63.2759 29.5049C63.3504 29.5049 63.8722 29.2514 64.2357 29.0449C64.7668 28.7351 65.8104 28.2938 66.0154 28.3032C66.1459 28.3032 66.4254 28.1999 66.6304 28.0591C66.8354 27.9183 67.0777 27.7962 67.1802 27.7774C67.2734 27.7587 67.6181 27.5897 67.9349 27.4113C68.2518 27.2235 68.9599 26.8762 69.5004 26.6321C70.0408 26.388 70.5067 26.1533 70.5347 26.1157C70.5626 26.0688 70.6465 26.0312 70.7304 26.0312C70.8142 26.0312 71.5224 25.712 72.3145 25.3271C73.0972 24.9422 73.7774 24.623 73.8333 24.623C73.8799 24.623 73.9731 24.5385 74.0383 24.4352C74.1035 24.3319 74.2247 24.2474 74.3085 24.2474C74.5322 24.2474 75.7901 23.609 75.7901 23.487C75.7901 23.4306 75.846 23.4025 75.9206 23.4306C75.9858 23.4588 76.1256 23.4306 76.2187 23.3649C76.3212 23.2992 76.5449 23.2147 76.7219 23.1865C76.899 23.1584 77.4021 22.9425 77.8308 22.7077C78.2594 22.473 78.6974 22.2571 78.8092 22.2195C78.9117 22.182 79.1074 22.0787 79.2285 21.9848C79.3496 21.8816 79.508 21.8065 79.5733 21.8065C79.6478 21.8065 80.0019 21.6469 80.3746 21.4497C80.7473 21.2526 81.2319 21.0366 81.4555 20.9615C81.6792 20.8958 81.8841 20.7925 81.9214 20.7362C82.0426 20.5484 82.3687 20.417 82.611 20.4639C82.7601 20.4921 82.9557 20.4452 83.1235 20.3325C84.0832 19.6753 84.2882 19.5533 84.4094 19.5533C84.4746 19.5533 84.5678 19.5157 84.5957 19.4594C84.6237 19.4124 84.7169 19.3655 84.7914 19.3655C84.8659 19.3655 85.5648 19.0463 86.3475 18.6614C87.1302 18.2764 87.8198 17.9572 87.8757 17.9572C87.9316 17.9572 88.0714 17.8821 88.1925 17.7883C88.3136 17.6944 88.6025 17.5629 88.8355 17.4972C89.4225 17.3282 90.2891 16.8682 90.3543 16.6992C90.3823 16.6241 90.4941 16.5678 90.5966 16.5772C90.6898 16.5772 90.9134 16.5208 91.0904 16.4363C91.2582 16.3518 91.7707 16.0984 92.2366 15.873L93.0752 15.4693L92.5161 15.4412C92.2086 15.4224 90.3636 15.4318 88.4161 15.4506C84.6144 15.4881 84.6423 15.4881 83.8316 16.0139C83.608 16.1547 83.3657 16.2673 83.2819 16.2673C83.198 16.2673 83.0303 16.3518 82.8998 16.4551C82.7694 16.5584 82.5737 16.6429 82.4712 16.6429C82.3687 16.6429 81.968 16.8306 81.5767 17.056C81.1853 17.2719 80.7287 17.4878 80.5703 17.516C80.4026 17.5535 80.0578 17.7319 79.8062 17.9291C79.5453 18.1168 79.2564 18.2764 79.1446 18.2858C79.0421 18.2952 78.8278 18.3891 78.6787 18.5018C78.5296 18.6144 78.334 18.7083 78.2408 18.7083C77.924 18.7083 77.2251 19.0275 76.7126 19.4218C76.3678 19.6753 76.1442 19.788 76.0603 19.741C75.9858 19.6941 75.7901 19.7504 75.5572 19.8912C75.3428 20.0133 75.0819 20.1166 74.9701 20.1166C74.8676 20.1166 74.7651 20.1541 74.7465 20.1917C74.6999 20.3043 73.3022 21.0554 73.1344 21.0554C73.0506 21.0554 72.9574 21.1399 72.9294 21.2432C72.8922 21.384 72.799 21.4309 72.5847 21.4309C72.417 21.4309 72.2026 21.4966 72.1001 21.5718C72.007 21.6469 71.8579 21.7126 71.774 21.7126C71.6995 21.7126 71.3454 21.8628 70.982 22.0412C70.6279 22.2195 70.2924 22.3698 70.2365 22.3698C70.0129 22.3698 69.3233 22.7828 68.9879 23.1208C68.6058 23.5057 68.2145 23.6747 68.112 23.5057C68.0747 23.4494 67.8418 23.5527 67.5156 23.778C67.1709 24.0221 66.882 24.1535 66.6863 24.1535C66.5279 24.1535 66.3602 24.1911 66.3322 24.2474C66.3043 24.2944 65.9968 24.4821 65.652 24.6511C65.3072 24.8201 64.7854 25.1018 64.4966 25.2614C64.1332 25.4679 63.8909 25.5524 63.7418 25.5149C63.5927 25.4679 63.3877 25.5524 63.0336 25.7871C62.7727 25.9655 62.3907 26.1439 62.2043 26.1814C62.0086 26.219 61.6732 26.4067 61.4216 26.6227C61.1793 26.8198 60.9464 26.9607 60.8998 26.9325C60.8532 26.9043 60.6109 26.9888 60.3593 27.1109C60.1077 27.2329 59.5486 27.5052 59.1107 27.7117C58.6727 27.9089 58.2348 28.1718 58.1416 28.275C58.0018 28.4252 57.89 28.4628 57.713 28.4252C57.5266 28.3877 57.3496 28.4534 57.0048 28.6787C56.7439 28.8571 56.4084 29.0543 56.2407 29.12C56.073 29.1857 55.9425 29.2796 55.9425 29.3265C55.9425 29.3735 55.8214 29.411 55.6723 29.411C55.5139 29.411 55.3648 29.458 55.3369 29.5049C55.3089 29.5612 55.1971 29.5988 55.0853 29.5988C54.9828 29.5988 54.7871 29.6739 54.6566 29.7772C54.5169 29.871 54.3026 29.9837 54.1721 30.0213C54.0416 30.0588 53.7807 30.1996 53.5944 30.3123C53.3987 30.4343 53.1657 30.5376 53.0726 30.5376C52.9701 30.5376 52.8303 30.6127 52.7371 30.7066C52.6532 30.8099 52.411 30.9413 52.1873 30.9976C51.973 31.0634 51.7121 31.1666 51.6096 31.2136C51.5164 31.2699 51.2462 31.4107 51.0133 31.5328C50.7896 31.6548 50.5567 31.7956 50.4914 31.852C50.4355 31.8989 50.1746 31.9928 49.923 32.0585C49.6715 32.1336 49.3546 32.2651 49.2149 32.3589C49.0751 32.4528 48.9167 32.4998 48.8515 32.4622C48.7956 32.4247 48.721 32.4341 48.6837 32.4716C48.5067 32.7345 47.7799 33.2039 47.4444 33.279C46.8947 33.4011 46.4381 33.6358 46.4381 33.786C46.4381 33.8611 46.3449 33.9174 46.2144 33.9174C46.0933 33.9174 45.8883 34.0019 45.7579 34.1146C45.6181 34.2178 45.4597 34.2929 45.3944 34.2836C45.3292 34.2742 44.9192 34.4338 44.4813 34.6403C44.0433 34.8469 43.596 35.0534 43.4842 35.0816C43.3817 35.1191 43.2326 35.2036 43.1767 35.2787C43.1115 35.3538 42.9904 35.4195 42.9065 35.4195C42.8226 35.4195 42.2915 35.6449 41.7324 35.9265C41.164 36.1988 40.6143 36.4523 40.5024 36.4898C40.3906 36.5274 40.2788 36.6119 40.2602 36.687C40.2322 36.7527 40.0458 36.8841 39.8502 36.978C39.6545 37.0625 39.3284 37.2127 39.114 37.3066C38.909 37.4099 38.6761 37.485 38.5922 37.485C38.5177 37.485 38.3779 37.5695 38.2847 37.6727C38.1915 37.776 38.0238 37.8605 37.9027 37.8605C37.6977 37.8605 37.2225 38.0295 37.12 38.1422C37.092 38.1703 36.9616 38.2454 36.8125 38.3018C36.6727 38.3675 36.5609 38.4614 36.5609 38.5177C36.5609 38.5646 36.3745 38.6116 36.1602 38.6116C35.8713 38.6116 35.7036 38.6679 35.5825 38.7993C35.4986 38.8932 35.275 39.0247 35.1073 39.081C34.9302 39.1467 34.7904 39.2312 34.7904 39.2781C34.7904 39.3251 34.7159 39.3626 34.632 39.3626C34.2313 39.3626 31.995 40.5456 31.995 40.7615C31.995 40.8836 35.452 42.4608 35.7129 42.4514C35.8434 42.4514 36.1043 42.3857 36.2813 42.3012Z" fill="#D4CEC5"/>
<path d="M28.389 38.7999C28.4729 38.6966 28.6034 38.6403 28.6779 38.6685C28.7525 38.6966 28.8363 38.6779 28.8736 38.6215C28.9015 38.5652 29.0506 38.5183 29.1997 38.5183C29.3675 38.5183 29.5911 38.415 29.7774 38.246C29.9452 38.0958 30.262 37.9268 30.4763 37.8705C30.6813 37.8141 30.9049 37.7015 30.9702 37.6264C31.0354 37.5513 31.2031 37.4855 31.3429 37.4855C31.669 37.4855 32.3679 37.1757 32.7313 36.8659C32.8897 36.7345 33.0574 36.6594 33.1133 36.6875C33.1692 36.7251 33.3183 36.6875 33.4395 36.603C33.5606 36.5185 33.7283 36.4528 33.8029 36.4528C33.8867 36.4528 33.9892 36.3777 34.0358 36.2744C34.0917 36.1712 34.2781 36.0773 34.511 36.0397C34.716 36.0116 34.9117 35.9177 34.9397 35.8426C34.9769 35.7675 35.1167 35.7018 35.2565 35.7018C35.4056 35.7018 35.5454 35.6642 35.5733 35.6173C35.6572 35.4858 37.6885 34.5094 38.0519 34.4343C38.229 34.3968 38.6203 34.1715 38.9185 33.9461C39.2167 33.7114 39.5149 33.5518 39.5894 33.58C39.6546 33.5988 39.9621 33.4673 40.2696 33.2608C40.9126 32.8477 41.6301 32.5097 41.891 32.5097C42.1519 32.5097 42.683 32.2656 43.2328 31.8995C43.503 31.7211 43.7546 31.5709 43.7919 31.5709C44.0062 31.5709 45.376 30.9325 45.5623 30.7447C45.6835 30.6227 45.8325 30.5382 45.8978 30.5663C45.963 30.5851 46.1866 30.51 46.3916 30.3973C46.5966 30.2847 46.9228 30.1345 47.1278 30.0688C47.3234 30.003 47.6309 29.8528 47.8173 29.7308C47.9943 29.6087 48.1993 29.5055 48.2739 29.5055C48.3857 29.5055 50.6221 28.407 51.5632 27.8907C51.7402 27.7874 52.0477 27.6372 52.2341 27.5621C52.4298 27.4776 52.5882 27.3555 52.5882 27.2992C52.5882 27.1771 53.0075 27.0457 53.4454 27.0269C53.5759 27.0175 53.8088 26.9331 53.9579 26.8204C54.0977 26.7171 54.3866 26.5669 54.5916 26.5012C54.7966 26.4355 55.0668 26.304 55.1879 26.2101C55.3091 26.1069 55.4488 26.0318 55.4954 26.0318C55.5513 26.0318 55.7097 25.9473 55.8588 25.8346C56.0079 25.7313 56.1663 25.6656 56.2129 25.6938C56.2595 25.722 57.0236 25.384 57.9088 24.9427C58.8033 24.4921 59.8004 23.9945 60.1358 23.8255C60.4713 23.6565 60.8626 23.4594 61.0211 23.3843C61.1701 23.2998 61.487 23.1589 61.7199 23.0557C62.9126 22.5205 63.1176 22.4173 63.1176 22.3609C63.1176 22.2295 63.8165 21.8821 64.2731 21.7976C64.7949 21.7038 65.4658 21.4033 65.6335 21.1874C65.6987 21.1217 65.8012 21.056 65.8665 21.056C65.9224 21.056 66.0528 20.9715 66.146 20.8682C66.2392 20.7555 66.379 20.6992 66.4535 20.7274C66.5281 20.7555 66.6399 20.7368 66.7051 20.6804C66.7703 20.6241 67.0685 20.502 67.3667 20.3988C67.6649 20.2955 68.0376 20.089 68.196 19.9387C68.4196 19.7322 69.808 19.0844 70.041 19.0844C70.1528 19.0844 71.1778 18.5962 71.4107 18.4272C71.5412 18.3333 71.7462 18.2301 71.8767 18.2019C72.3426 18.0611 72.7153 17.8545 72.7153 17.7231C72.7153 17.6386 72.8085 17.5823 72.9389 17.5823C73.265 17.5823 73.9825 17.2537 74.0571 17.0659C74.0944 16.9626 74.1689 16.9251 74.2714 16.9626C74.3553 17.0002 74.495 16.9533 74.5882 16.8688C74.6814 16.7843 74.7932 16.7467 74.8491 16.7749C74.905 16.8124 75.11 16.7279 75.315 16.5965C75.5293 16.4651 75.7157 16.3618 75.7437 16.3618C75.9207 16.3618 76.7966 15.883 76.8432 15.7609C76.8805 15.6764 76.9923 15.6201 77.1041 15.6389C77.2159 15.6483 77.3277 15.6013 77.3464 15.545C77.3837 15.4511 76.4798 15.423 73.0414 15.423C68.4849 15.423 68.401 15.4323 68.0562 15.8454C67.991 15.9205 67.8605 15.9675 67.7767 15.9393C67.6928 15.9112 67.5624 15.9487 67.4971 16.0332C67.4319 16.1083 67.3294 16.174 67.2549 16.174C67.1151 16.174 66.0435 16.7937 65.9597 16.9251C65.9317 16.9814 65.8199 17.019 65.7174 17.019C65.4378 17.019 64.7856 17.3757 64.4967 17.6949C64.2824 17.9203 64.2078 17.9484 64.0494 17.8639C63.8258 17.7419 63.4904 17.9203 63.4904 18.1644C63.4904 18.2676 63.4158 18.3333 63.3133 18.3333C63.2108 18.3333 63.099 18.3803 63.0617 18.4366C63.0244 18.5023 62.866 18.5211 62.6704 18.4836C62.4467 18.4554 62.2883 18.4742 62.1858 18.568C62.1113 18.6338 61.8131 18.784 61.5336 18.8966C61.254 19.0093 60.7415 19.2816 60.4061 19.5163C60.0147 19.7791 59.6792 19.9294 59.5022 19.9294C59.3065 19.9294 59.0829 20.042 58.7847 20.3049C58.4399 20.6053 58.3002 20.671 58.0579 20.6429C57.8529 20.6241 57.6759 20.6804 57.4709 20.8306C57.3125 20.9527 57.1447 21.056 57.0888 21.056C57.0329 21.056 56.8838 21.1405 56.744 21.2531C56.6136 21.3564 56.3993 21.4597 56.2595 21.4878C56.1291 21.516 55.8681 21.6286 55.6818 21.7413C55.4954 21.8634 55.0668 22.0793 54.7313 22.2201C54.3959 22.3609 54.0604 22.5299 53.9859 22.5956C53.9113 22.6614 53.6598 22.7646 53.4268 22.8304C53.1938 22.8961 52.7373 23.1026 52.4018 23.2904C52.0664 23.4688 51.5259 23.7692 51.1905 23.9476C50.855 24.1259 50.5382 24.3137 50.4916 24.3794C50.4357 24.4358 50.3239 24.4733 50.2214 24.4545C50.1282 24.4358 49.9325 24.5015 49.7834 24.6141C49.6437 24.7268 49.4759 24.8113 49.42 24.8113C49.3362 24.8113 48.4789 25.215 47.8825 25.5342C47.4353 25.7783 46.0655 26.4167 45.6089 26.5951C45.3294 26.7077 44.9566 26.9143 44.7889 27.0645C44.3789 27.4306 43.9876 27.6278 43.8478 27.5433C43.7826 27.5057 43.2607 27.7123 42.6364 28.0127C42.0401 28.3131 41.4996 28.5572 41.4437 28.5666C41.3039 28.5666 40.5678 28.9328 40.2603 29.1487C40.0274 29.3177 39.459 29.5242 39.1981 29.543C39.1421 29.5524 39.0117 29.6369 38.9092 29.7402C38.5365 30.1345 38.3221 30.2565 38.0426 30.2565C37.8376 30.2565 37.7444 30.3035 37.7072 30.4443C37.6699 30.5851 37.5767 30.6321 37.3438 30.6321C37.1387 30.6321 36.971 30.6978 36.8685 30.8198C36.7753 30.9231 36.6356 31.0076 36.5424 31.0076C36.3747 31.0076 35.2006 31.5991 35.0235 31.768C34.9769 31.815 34.8558 31.8525 34.744 31.8525C34.6415 31.8525 34.4272 31.937 34.2595 32.0309C34.101 32.1342 33.7842 32.2656 33.5606 32.322C33.337 32.3783 32.9829 32.5567 32.7686 32.7069C32.5542 32.8571 32.3399 32.9791 32.2933 32.9791C32.1629 32.9791 30.5881 33.7959 30.4111 33.9649C30.3272 34.0494 30.0104 34.1996 29.7122 34.3029C29.1904 34.4907 28.7431 34.7254 28.6313 34.885C28.594 34.9319 28.4822 34.9413 28.3704 34.9037C28.2306 34.8568 28.0722 34.9319 27.7647 35.176C27.5504 35.3638 27.3175 35.514 27.2616 35.514C27.2057 35.514 26.7584 35.7299 26.2645 35.9834C25.7707 36.2463 25.2861 36.4528 25.1836 36.4528C25.0066 36.4528 24.4661 36.7814 24.3357 36.9692C24.2984 37.0161 24.2984 37.0912 24.3357 37.1288C24.4009 37.1851 28.1281 38.9877 28.1934 38.9877C28.212 38.9877 28.2959 38.9032 28.389 38.7999Z" fill="#D4CEC5"/>
<path d="M109.149 38.4616C109.149 38.3395 109.084 38.3207 108.86 38.3677C108.701 38.3958 108.524 38.424 108.478 38.424C108.431 38.424 108.422 38.471 108.45 38.5179C108.478 38.5742 108.655 38.6118 108.832 38.6118C109.065 38.6118 109.149 38.5742 109.149 38.4616Z" fill="#D4CEC5"/>
<path d="M104.07 38.4803C104.219 38.4145 104.424 38.2643 104.527 38.1611C104.639 38.0296 104.797 37.9639 104.993 37.9733C105.338 37.9827 105.627 37.8512 106.064 37.4663C106.26 37.2879 106.447 37.2034 106.558 37.2316C106.661 37.2598 106.754 37.2316 106.791 37.1471C106.819 37.072 106.922 37.0157 107.034 37.0157C107.136 37.0157 107.294 36.95 107.388 36.8655C107.471 36.7904 107.676 36.7059 107.844 36.6871C108.003 36.6683 108.366 36.5463 108.646 36.4148L109.149 36.1801V34.9596C109.149 34.0959 109.121 33.7298 109.037 33.7298C108.841 33.7298 107.984 34.1898 107.826 34.3776C107.686 34.5372 107.63 34.5559 107.49 34.4714C107.36 34.3869 107.257 34.4151 106.968 34.6123C106.773 34.7437 106.549 34.8564 106.484 34.8564C106.325 34.8564 105.766 35.185 105.235 35.5887C104.946 35.8046 104.76 35.8797 104.611 35.8421C104.49 35.814 104.257 35.8703 104.052 35.983C103.856 36.0862 103.632 36.1707 103.539 36.1707C103.344 36.1707 102.747 36.5087 102.421 36.8091C102.244 36.9687 102.104 37.0251 101.937 36.9969C101.797 36.9687 101.685 36.9969 101.657 37.072C101.629 37.1471 101.527 37.2034 101.433 37.2034C101.34 37.2034 101.051 37.3067 100.79 37.4382C100.53 37.5602 100.203 37.6916 100.064 37.7292C99.9332 37.7667 99.7654 37.87 99.7095 37.9639C99.6443 38.0672 99.4952 38.1423 99.3647 38.1423C99.225 38.1423 99.0386 38.208 98.9361 38.2831C98.8429 38.3582 98.6659 38.4239 98.5448 38.4239C98.4329 38.4239 98.3398 38.4709 98.3398 38.5178C98.3398 38.668 103.726 38.6305 104.07 38.4803Z" fill="#D4CEC5"/>
<path d="M93.8203 38.4806C94.0253 38.4243 94.3793 38.2741 94.603 38.1614C94.8359 38.0488 95.0689 37.9549 95.1341 37.9549C95.19 37.9549 95.2925 37.8892 95.3577 37.8141C95.423 37.739 95.5721 37.6732 95.6839 37.6732C95.805 37.6732 95.9168 37.6451 95.9355 37.6075C96.01 37.4198 97.1189 36.7532 97.4543 36.6969C97.9016 36.6124 98.3395 36.387 98.3395 36.2556C98.3395 36.1899 98.4234 36.1711 98.5445 36.1993C98.7216 36.2462 99.057 36.1242 99.7838 35.7205C99.8863 35.6641 100.157 35.5515 100.38 35.467C100.613 35.3825 100.958 35.1853 101.144 35.0351C101.387 34.8474 101.592 34.7629 101.834 34.7629C102.095 34.7629 102.244 34.6971 102.467 34.4624C102.859 34.0681 103.176 33.8991 103.427 33.9555C103.558 33.993 103.753 33.9273 103.968 33.7771C104.154 33.655 104.368 33.5705 104.443 33.5987C104.601 33.6644 105.794 33.0824 105.794 32.9509C105.794 32.904 105.897 32.8946 106.018 32.9228C106.167 32.9603 106.279 32.9321 106.325 32.8476C106.428 32.6787 107.043 32.3782 107.611 32.228C107.872 32.1623 108.207 31.9839 108.375 31.8243C108.543 31.6647 108.776 31.5333 108.888 31.5239C109.102 31.5051 109.102 31.4863 109.13 30.1344C109.139 29.2801 109.121 28.7543 109.065 28.7543C109.009 28.7543 108.785 28.8858 108.562 29.036C108.329 29.1956 108.058 29.3176 107.965 29.3176C107.676 29.3176 107.182 29.5899 106.8 29.956C106.586 30.1626 106.409 30.2565 106.316 30.2283C106.167 30.172 105.859 30.2752 105.114 30.6414C104.909 30.7447 104.639 30.8198 104.499 30.8198C104.34 30.8198 104.145 30.923 103.977 31.1014C103.772 31.3173 103.642 31.3737 103.492 31.3361C103.278 31.2892 102.7 31.5896 102.449 31.8806C102.384 31.9651 102.179 32.0684 101.983 32.0966C101.461 32.1999 101.116 32.3782 100.827 32.688C100.557 32.9885 100.492 33.0072 100.138 32.9791C99.9236 32.9697 99.4204 33.195 99.1595 33.4203C99.0757 33.4954 98.9639 33.533 98.9079 33.5048C98.852 33.4673 98.5259 33.5799 98.1811 33.7583C96.8207 34.453 96.1218 34.7629 95.9448 34.7629C95.8423 34.7629 95.5721 34.8849 95.3484 35.0445C95.1248 35.1947 94.8546 35.3262 94.7521 35.3262C94.6496 35.3262 94.2955 35.4764 93.96 35.6548C93.6339 35.8331 93.3078 35.9833 93.2519 35.9833C93.1866 35.9833 92.8419 36.1523 92.4691 36.3683C92.1057 36.5748 91.7516 36.725 91.6957 36.7062C91.6305 36.6875 91.4814 36.7438 91.3603 36.8377C91.2391 36.941 91.0714 37.0161 90.9876 37.0161C90.8105 37.0161 90.4192 37.3447 90.4192 37.4855C90.4192 37.5418 90.2607 37.5794 90.0651 37.5794C89.6551 37.5794 89.0308 37.8516 88.7605 38.1427C88.658 38.2553 88.5276 38.321 88.481 38.2929C88.3692 38.2272 87.9033 38.4149 87.9033 38.537C87.9033 38.659 93.3823 38.6027 93.8203 38.4806Z" fill="#D4CEC5"/>
<path d="M82.7972 38.4993C82.9462 38.4524 83.0581 38.3679 83.0581 38.321C83.0581 38.274 83.1233 38.2365 83.1978 38.2365C83.2724 38.2365 83.4121 38.1989 83.5053 38.152C83.5892 38.0956 83.7849 38.0018 83.9433 37.9267C84.2042 37.8046 84.3067 37.7577 84.8005 37.5042C84.9217 37.4385 85.0987 37.3915 85.2012 37.3915C85.3037 37.3915 85.6019 37.2225 85.8628 37.016C86.1237 36.8094 86.4126 36.6404 86.5058 36.6404C86.5989 36.6404 86.7201 36.5747 86.7853 36.4996C86.8505 36.4245 86.9996 36.3588 87.1208 36.3588C87.391 36.3588 87.9594 36.1053 88.3135 35.8143C88.4998 35.6641 88.6117 35.6265 88.6769 35.6922C88.8446 35.8612 89.0216 35.8049 89.3664 35.4669C89.5528 35.2885 89.7951 35.1383 89.8976 35.1383C90.0094 35.1383 90.3169 35.0069 90.5964 34.8567C90.876 34.6971 91.1741 34.575 91.258 34.575C91.3512 34.575 91.4723 34.5187 91.5282 34.4436C91.5841 34.3779 91.7612 34.2934 91.9103 34.2558C92.0594 34.2276 92.2644 34.115 92.3482 34.0117C92.4414 33.9084 92.6184 33.8239 92.7489 33.8239C92.8887 33.8239 93.1589 33.7488 93.3639 33.6456C93.5596 33.5517 94.0441 33.317 94.4355 33.1292C94.8268 32.9414 95.1902 32.7912 95.2368 32.7912C95.2834 32.7912 95.4046 32.7067 95.4977 32.6035C95.5909 32.5002 95.7586 32.4157 95.8705 32.4157C95.9823 32.4157 96.2991 32.2937 96.5786 32.1434C96.8582 32.0026 97.1936 31.8524 97.3241 31.8242C97.4545 31.7867 97.6782 31.6552 97.8179 31.5238C97.9577 31.3924 98.1254 31.2891 98.1907 31.2891C98.2652 31.2891 98.3677 31.2234 98.4329 31.1483C98.4982 31.0732 98.582 31.0356 98.6286 31.0638C98.7404 31.1295 99.3927 30.8948 100.297 30.4535C100.725 30.2376 101.117 30.0686 101.172 30.0686C101.228 30.0686 101.424 29.9935 101.601 29.8902C101.778 29.7964 102.03 29.6837 102.16 29.6461C102.291 29.6086 102.524 29.4772 102.691 29.3551C102.85 29.2331 103.055 29.1298 103.148 29.1298C103.232 29.1298 103.511 29.0077 103.763 28.8481C104.005 28.6979 104.247 28.5665 104.285 28.5665C104.322 28.5665 104.406 28.5195 104.462 28.4632C104.583 28.3412 105.217 28.0971 106.139 27.806C106.465 27.7028 106.922 27.4587 107.183 27.2521C107.444 27.0456 107.732 26.8766 107.835 26.8766C107.937 26.8766 108.049 26.8296 108.077 26.7827C108.114 26.7264 108.189 26.6982 108.245 26.7076C108.31 26.717 108.534 26.6607 108.757 26.5668L109.149 26.4072V24.9989V23.5907H108.906C108.776 23.5907 108.142 23.8442 107.499 24.154C106.857 24.4638 106.269 24.7173 106.176 24.7173C106.092 24.7173 105.915 24.7924 105.794 24.8769C105.664 24.9708 105.487 25.0271 105.394 25.0177C105.3 24.9989 105.03 25.1397 104.779 25.3181C104.527 25.5059 104.294 25.6561 104.257 25.6561C104.219 25.6561 104.08 25.7312 103.949 25.8345C103.809 25.9284 103.577 26.0316 103.437 26.0692C103.297 26.1067 103.111 26.21 103.017 26.3133C102.934 26.4166 102.775 26.5011 102.654 26.5011C102.542 26.5011 102.421 26.548 102.393 26.5949C102.365 26.6513 102.253 26.6888 102.151 26.6888C102.048 26.6888 101.946 26.7545 101.918 26.8296C101.881 26.9141 101.76 26.9611 101.61 26.9517C101.48 26.9423 101.126 27.0456 100.837 27.1864C100.548 27.3272 100.269 27.4399 100.213 27.4399C100.157 27.4399 100.045 27.515 99.9518 27.6089C99.7934 27.7685 99.5977 27.8624 98.5727 28.2661C98.3677 28.3506 98.0975 28.5102 97.967 28.6228C97.8086 28.7636 97.6595 28.82 97.5291 28.7918C97.4079 28.7543 97.2961 28.8012 97.2123 28.9139C97.0539 29.1204 96.4482 29.4114 96.1593 29.4114C96.0382 29.4114 95.8332 29.5241 95.7027 29.6555C95.5443 29.8151 95.4046 29.8808 95.2834 29.8433C95.1809 29.8057 95.0598 29.8433 94.9852 29.9278C94.92 30.0029 94.7896 30.0686 94.6964 30.0686C94.6032 30.0686 94.3796 30.1531 94.2025 30.2658C94.0162 30.369 93.8205 30.4441 93.7552 30.416C93.6062 30.369 93.1962 30.5662 93.0378 30.7634C92.9632 30.8478 92.8141 30.9136 92.693 30.9136C92.5718 30.9136 92.4041 30.9887 92.3109 31.0826C92.2178 31.1764 91.9569 31.336 91.7239 31.4299C91.4909 31.5238 91.2207 31.6834 91.1089 31.7773C91.0064 31.8712 90.8946 31.9181 90.8573 31.89C90.7921 31.8148 90 32.181 89.9069 32.3124C89.8789 32.3688 89.6926 32.4533 89.4876 32.5096C89.1894 32.5941 87.5494 33.3451 87.0648 33.6268C86.8505 33.7488 86.4964 33.8897 86.1144 34.0117C85.928 34.068 85.6205 34.2183 85.4342 34.3497C85.2478 34.4717 85.0242 34.575 84.931 34.575C84.8378 34.575 84.5303 34.7065 84.2415 34.8567C83.9526 35.0163 83.6358 35.1383 83.5333 35.1383C83.4308 35.1383 83.319 35.1853 83.291 35.2322C83.2631 35.2885 83.0394 35.42 82.7972 35.5232C82.5549 35.6359 82.2567 35.8049 82.1356 35.8988C82.0144 36.002 81.8281 36.0771 81.7349 36.0771C81.5299 36.0771 80.6354 36.556 80.6354 36.6686C80.6354 36.7062 80.5329 36.7343 80.4117 36.7343C80.1322 36.7343 79.219 37.138 79.0606 37.3352C78.9954 37.4197 78.8463 37.4854 78.7345 37.4854C78.5761 37.4854 78.0356 37.7107 77.3554 38.0581C77.2622 38.105 77.1131 38.1426 77.0199 38.1426C76.8522 38.1426 76.5354 38.4148 76.5354 38.5463C76.5354 38.6496 82.5176 38.612 82.7972 38.4993Z" fill="#D4CEC5"/>
<path d="M70.7582 38.546C70.8327 38.5179 71.0098 38.3958 71.1402 38.2738C71.2893 38.1329 71.5222 38.0297 71.7738 38.0015C71.9975 37.9827 72.2491 37.9076 72.3329 37.8325C72.4168 37.7574 72.5845 37.6635 72.715 37.626C73.1343 37.5133 73.535 37.2974 73.5815 37.1659C73.6095 37.0908 73.8518 37.0157 74.1593 36.9688C74.4854 36.9312 74.8209 36.8186 75.0259 36.6684C75.3893 36.4243 76.4702 35.8891 76.6099 35.8891C76.6565 35.8891 76.7497 35.8234 76.8149 35.7483C76.8802 35.6732 77.1038 35.5605 77.3181 35.5042C77.5231 35.4479 77.9517 35.2413 78.2686 35.0536C78.5761 34.8564 79.1258 34.6029 79.4985 34.4903C79.862 34.3776 80.1881 34.2462 80.216 34.1992C80.244 34.1429 80.3279 34.1053 80.4024 34.1053C80.4676 34.1053 80.7844 33.9551 81.1013 33.7768C81.4181 33.5984 81.7163 33.4482 81.7628 33.4482C81.8094 33.4482 82.2194 33.2792 82.6667 33.0632C83.114 32.8473 83.6358 32.622 83.8408 32.5469C84.0365 32.4718 84.4185 32.2934 84.6794 32.1432C84.9403 31.993 85.4901 31.7301 85.9001 31.5705C86.6642 31.2701 88.9937 30.1153 89.1521 29.9651C89.208 29.9182 89.3757 29.8806 89.5435 29.8806C89.7485 29.8806 89.9814 29.7679 90.2982 29.5145C90.5498 29.3079 90.9132 29.1201 91.1089 29.0732C91.5934 28.9887 92.3389 28.7071 92.6371 28.5005C92.9353 28.3034 93.8857 27.8152 93.9789 27.8152C94.0162 27.8152 94.5659 27.5617 95.2089 27.2613C95.8425 26.9514 96.6345 26.6135 96.9607 26.5008C97.2868 26.3788 97.6036 26.2473 97.6689 26.191C97.8366 26.0595 98.7032 25.6559 98.8336 25.6559C98.8802 25.6559 99.0666 25.5526 99.2343 25.4211C99.4113 25.2897 99.7095 25.1207 99.9052 25.055C100.492 24.8485 101.2 24.4541 101.256 24.3133C101.284 24.2288 101.489 24.1631 101.778 24.1349C102.095 24.1068 102.337 24.0129 102.468 23.8815C102.589 23.7782 102.775 23.6843 102.878 23.6843C102.98 23.6843 103.12 23.6186 103.185 23.5435C103.25 23.4684 103.372 23.4027 103.455 23.4027C103.539 23.4027 103.856 23.2806 104.164 23.1304C105.953 22.2573 107.099 21.7128 107.183 21.7128C107.229 21.7128 107.285 21.647 107.322 21.5719C107.35 21.4968 107.434 21.4311 107.518 21.4311C107.593 21.4311 107.658 21.3935 107.658 21.3466C107.658 21.2339 108.189 21.0274 108.301 21.1025C108.357 21.1307 108.496 21.0931 108.608 21.018C108.72 20.9335 108.888 20.8678 108.981 20.8678C109.139 20.8678 109.149 20.7364 109.149 19.3187V17.7697H108.832C108.664 17.7697 108.422 17.8448 108.301 17.948C108.18 18.0419 107.909 18.1734 107.704 18.2391C107.211 18.3987 106.67 18.6897 106.53 18.8587C106.381 19.0465 105.832 19.2718 105.552 19.2718C105.431 19.2718 105.244 19.3563 105.151 19.4502C105.049 19.5534 104.825 19.7036 104.657 19.7975C104.49 19.882 104.275 20.0135 104.192 20.0886C104.089 20.1825 103.94 20.2106 103.809 20.1731C103.651 20.1355 103.53 20.1731 103.418 20.3045C103.316 20.4172 103.148 20.4829 103.008 20.4735C102.766 20.4641 101.974 20.8209 101.489 21.1588C101.359 21.2621 101.191 21.3372 101.135 21.3372C101.07 21.3372 100.772 21.5062 100.474 21.7128C100.129 21.9475 99.8213 22.0883 99.6443 22.0883C99.3088 22.0883 98.9454 22.2573 98.3118 22.7079C98.0695 22.8863 97.7993 23.0271 97.7061 23.0271C97.6223 23.0271 97.4173 23.0928 97.2682 23.1773C97.1098 23.2524 96.8489 23.3369 96.6811 23.3651C96.5227 23.3839 96.178 23.5435 95.9357 23.7219C95.6841 23.8908 95.3393 24.0692 95.1623 24.1068C94.9852 24.1443 94.715 24.257 94.5566 24.3509C94.3982 24.4448 94.2025 24.5293 94.1373 24.5293C94.0627 24.5293 93.69 24.717 93.2987 24.9423C92.9073 25.1583 92.4414 25.3648 92.2644 25.4024C92.078 25.4305 91.7146 25.6089 91.4537 25.7873C91.1928 25.9751 90.9039 26.1253 90.8107 26.1253C90.7175 26.1253 90.5685 26.1816 90.466 26.2567C90.0746 26.529 89.5714 26.7825 89.413 26.7825C89.3198 26.7825 89.0216 26.9045 88.7421 27.0453C88.4532 27.1955 88.006 27.3739 87.7264 27.449C87.4562 27.5147 87.2046 27.6274 87.186 27.6931C87.158 27.7588 87.0835 27.8152 87.0089 27.8152C86.9437 27.8152 86.748 27.8997 86.5803 28.0029C86.4126 28.1062 86.2076 28.1907 86.133 28.1907C86.0585 28.1907 85.8908 28.247 85.7603 28.3221C84.5862 28.9512 84.2042 29.1671 84.0737 29.2797C83.9992 29.3549 83.8874 29.4112 83.8315 29.4112C83.7756 29.4112 83.6824 29.4769 83.6171 29.552C83.5519 29.6271 83.3935 29.6928 83.2724 29.6928C83.1419 29.6928 82.7226 29.843 82.3406 30.0214C81.9585 30.1998 81.5951 30.35 81.5299 30.35C81.4647 30.35 81.3342 30.4251 81.2317 30.519C80.9801 30.7537 80.3838 31.0541 79.8899 31.2044C79.657 31.2701 79.3215 31.4485 79.1445 31.5893C78.9208 31.7677 78.7158 31.8521 78.4736 31.8521C78.2872 31.8521 78.1008 31.8897 78.0729 31.946C78.017 32.0305 77.7933 32.1432 77.0013 32.4624C76.7683 32.5657 76.4981 32.7065 76.3956 32.791C76.2931 32.8755 76.1068 32.9881 75.9763 33.0445C75.0631 33.4669 74.8581 33.5702 74.4947 33.7768C74.2711 33.9082 73.9636 34.0115 73.8052 34.0115C73.6468 34.0115 73.3952 34.1241 73.1902 34.2837C73.0038 34.4246 72.7056 34.5748 72.5193 34.6123C72.3236 34.6499 72.0161 34.7813 71.8297 34.9127C71.6434 35.0348 71.4104 35.1193 71.3266 35.0911C71.2241 35.063 71.0657 35.1475 70.8979 35.3258C70.7488 35.476 70.5532 35.6075 70.46 35.6075C70.3668 35.6075 70.2084 35.692 70.1059 35.7952C70.0034 35.8985 69.7984 35.983 69.6493 35.983C69.5002 35.983 69.3325 36.0487 69.2673 36.1238C69.202 36.1989 69.0809 36.2647 68.9877 36.2647C68.8945 36.2647 68.7734 36.321 68.7175 36.3961C68.6523 36.4712 68.4659 36.5651 68.3075 36.6026C68.1398 36.6308 67.7111 36.7998 67.3571 36.9688C66.9936 37.1378 66.5091 37.3537 66.2668 37.4382C66.0246 37.5321 65.745 37.6823 65.6425 37.7762C65.54 37.8701 65.3909 37.9546 65.3164 37.9546C65.1207 37.9546 64.1423 38.4428 64.1423 38.5366C64.1423 38.6211 70.5345 38.6305 70.7582 38.546Z" fill="#D4CEC5"/>
<path d="M97.3148 38.0952C97.3148 37.9637 96.9514 37.6539 96.8582 37.7196C96.7091 37.8041 96.7371 37.9262 96.9141 37.9919C97.0073 38.0201 97.1377 38.0764 97.1937 38.1046C97.2589 38.1327 97.3148 38.1327 97.3148 38.0952Z" fill="#D4CEC5"/>
<path d="M23.7763 36.1519C23.7297 36.0111 23.5154 35.936 23.5154 36.0581C23.5154 36.105 23.5807 36.1801 23.6645 36.2083C23.7577 36.2458 23.795 36.2177 23.7763 36.1519Z" fill="#D4CEC5"/>
<path d="M20.6084 34.894C20.655 34.8095 20.8227 34.725 20.9811 34.7157C21.242 34.6969 22.0993 34.312 22.7236 33.9364C22.8727 33.8425 23.2548 33.6642 23.5623 33.5421C23.8698 33.4201 24.1866 33.2699 24.2611 33.2135C24.3357 33.1478 24.5872 33.0258 24.8202 32.9413C25.0532 32.8474 25.2861 32.7347 25.342 32.6878C25.3979 32.6408 25.6495 32.4906 25.9011 32.3592C26.1527 32.2277 26.4043 32.0588 26.4695 31.9743C26.544 31.8804 26.6745 31.8428 26.8236 31.871C26.954 31.8992 27.0845 31.8898 27.1125 31.8428C27.1311 31.7959 27.3454 31.6832 27.569 31.58C27.802 31.4767 27.9884 31.3452 27.9884 31.2795C27.9884 31.2232 28.0629 31.195 28.1747 31.2232C28.2772 31.2514 28.4543 31.195 28.5661 31.1105C28.7804 30.9509 29.0599 30.8101 29.852 30.4627C30.5788 30.1435 31.5665 29.6835 31.7156 29.5896C32.1722 29.308 32.5729 29.1296 32.7406 29.1296C32.8524 29.1296 33.132 28.9794 33.3649 28.801C33.5979 28.6226 33.8494 28.4724 33.9333 28.4724C34.0079 28.4724 34.306 28.3504 34.5949 28.2002C36.0951 27.4303 38.0333 26.5009 38.1358 26.5009C38.1917 26.5009 38.3501 26.3976 38.4805 26.2662C38.611 26.1347 38.7508 26.0502 38.7974 26.0784C38.8346 26.1066 39.2074 25.9657 39.608 25.7592C40.0087 25.562 40.4373 25.3555 40.5678 25.2898C40.6983 25.2334 40.866 25.1489 40.9405 25.102C41.0151 25.0551 41.276 24.9236 41.5182 24.8204C42.5153 24.3791 42.8228 24.2195 42.8694 24.0975C42.8973 24.0223 42.9719 23.966 43.0371 23.966C43.1023 23.966 43.2048 23.9003 43.27 23.8252C43.3446 23.7407 43.5403 23.6844 43.7825 23.6844C44.1832 23.6844 44.3416 23.5905 44.9846 23.0084C45.0871 22.9145 45.2548 22.8488 45.3573 22.8582C45.4691 22.8676 45.8046 22.7455 46.1121 22.5859C46.9321 22.1541 47.8918 21.7128 48.0036 21.7128C48.0502 21.7128 48.1155 21.6471 48.1527 21.572C48.1807 21.4969 48.2832 21.4312 48.3764 21.4312C48.5814 21.4312 49.6343 20.8866 49.6809 20.7646C49.6995 20.7177 49.802 20.6801 49.9139 20.6801C50.0257 20.6801 50.2027 20.6144 50.2959 20.5393C50.3984 20.4642 50.5568 20.3985 50.65 20.3985C50.7432 20.3985 50.8829 20.2952 50.9668 20.1731C51.0507 20.0323 51.1625 19.9666 51.2463 19.9948C51.3954 20.0511 52.0757 19.7507 52.5788 19.4033C52.7652 19.2812 52.9888 19.178 53.0727 19.178C53.1659 19.178 53.6131 18.9902 54.0697 18.7555C54.5263 18.5208 54.955 18.333 55.0295 18.333C55.104 18.333 55.4488 18.1359 55.8029 17.9012C56.4179 17.4881 56.5856 17.413 57.4802 17.197C57.6852 17.1501 57.9647 17.0187 58.1045 16.9154C58.412 16.6994 59.204 16.2676 59.3065 16.2676C59.3438 16.2676 59.5674 16.1455 59.7817 15.9953C60.0054 15.8451 60.3035 15.6855 60.4433 15.6573C61.1329 15.479 60.3967 15.4226 57.0795 15.4039L53.4734 15.3757L53.4454 15.0002C53.4081 14.5495 53.3243 14.4369 53.0913 14.5589C51.9918 15.1034 51.6563 15.3006 51.3582 15.5259C51.1718 15.6761 50.9295 15.7982 50.8177 15.7982C50.5568 15.7982 50.1095 16.0329 49.625 16.4272C49.3827 16.6337 49.1684 16.737 49.0752 16.6994C48.9914 16.6619 48.6932 16.7839 48.3577 16.9717C48.0502 17.1595 47.7148 17.3472 47.6216 17.3942C47.5377 17.4505 47.3887 17.535 47.2955 17.582C47.2116 17.6383 46.988 17.7509 46.8109 17.826C46.6339 17.9105 46.3916 18.0608 46.2612 18.1546C46.14 18.2485 45.9071 18.333 45.7393 18.333C45.5809 18.333 45.2175 18.4551 44.938 18.6147C44.6584 18.7649 44.323 18.8963 44.1832 18.8963C44.0435 18.8963 43.8944 18.9526 43.8571 19.0278C43.7639 19.178 43.2421 19.4596 43.0464 19.4596C42.8414 19.4596 42.3382 19.7694 42.3382 19.9103C42.3382 19.9666 42.2544 20.0229 42.1612 20.0229C42.0587 20.0229 41.9469 20.0699 41.9189 20.1168C41.891 20.1731 41.7885 20.2107 41.6953 20.2107C41.6021 20.2107 41.453 20.2952 41.3598 20.3985C41.2667 20.5017 41.1362 20.5862 41.0617 20.5862C40.9964 20.5862 40.6237 20.7364 40.251 20.9148C39.8689 21.0932 39.5055 21.2434 39.431 21.2434C39.3658 21.2434 39.198 21.3185 39.0769 21.403C38.9464 21.4969 38.611 21.6753 38.3315 21.8161C38.0519 21.9475 37.614 22.1916 37.3531 22.3606C37.1015 22.5202 36.7287 22.6986 36.5424 22.7549C36.1231 22.8676 35.536 23.1962 35.536 23.3182C35.536 23.3652 35.4615 23.4027 35.3776 23.4027C35.1353 23.4027 34.0544 23.966 33.9613 24.135C33.8774 24.2946 33.076 24.595 32.871 24.5481C32.8151 24.5387 32.7126 24.595 32.6474 24.6701C32.5822 24.7452 32.4331 24.811 32.312 24.811C32.2001 24.811 32.079 24.8485 32.0417 24.8955C32.0138 24.9424 31.8554 25.0175 31.6876 25.0551C31.3988 25.1114 31.0354 25.3555 30.6254 25.7686C30.4763 25.9188 30.3831 25.947 30.3179 25.8812C30.2433 25.8061 30.0849 25.8437 29.7774 26.0033C29.5352 26.1253 29.3022 26.2662 29.2556 26.3131C29.1997 26.3694 29.0786 26.407 28.9668 26.407C28.8643 26.407 28.5661 26.529 28.3145 26.6699C28.0536 26.8201 27.7647 26.9797 27.6622 27.036C27.5597 27.0923 27.159 27.2989 26.777 27.4866C26.395 27.6838 26.0129 27.8997 25.9291 27.9654C25.8452 28.0406 25.7147 28.0781 25.6309 28.0406C25.4911 27.9936 24.5313 28.5381 24.4102 28.7447C24.3729 28.801 24.2518 28.8479 24.1307 28.8479C23.9443 28.8479 22.7609 29.3643 22.3975 29.6084C22.3229 29.6553 22.0341 29.8056 21.7639 29.937C21.4936 30.0778 21.242 30.2374 21.2234 30.3031C21.1955 30.3689 20.9439 30.4534 20.6736 30.4909C20.3661 30.5285 20.0493 30.6411 19.863 30.7819C19.6952 30.904 19.425 31.073 19.2573 31.1481C19.0989 31.2232 18.9405 31.3265 18.9032 31.3828C18.8752 31.4297 18.7727 31.4767 18.6796 31.4767C18.5864 31.4767 18.4559 31.533 18.4 31.6081C18.3441 31.6738 18.0366 31.8334 17.7105 31.9461C17.3937 32.0588 17.0489 32.2371 16.9371 32.331C16.8346 32.4343 16.7041 32.5094 16.6482 32.5094C16.4805 32.5094 15.6885 32.8849 15.6885 32.9694C15.6885 33.007 16.6389 33.4952 17.7943 34.0397C19.9375 35.063 20.4314 35.2132 20.6084 34.894Z" fill="#D4CEC5"/>
<path d="M12.0917 30.9606C12.1663 30.8855 12.2595 30.8198 12.306 30.8198C12.3526 30.8198 12.6135 30.6978 12.8931 30.5475C13.1726 30.3973 13.6758 30.1438 14.0113 29.9842C14.3374 29.8153 14.7381 29.5899 14.8965 29.4679C15.0456 29.3552 15.3251 29.2238 15.5022 29.1862C15.6792 29.1581 16.0333 29.0266 16.2942 28.9046C16.9651 28.5854 21.093 26.5106 21.3726 26.3603C21.503 26.2852 22.0248 26.0224 22.5466 25.7595C23.0685 25.506 23.6275 25.215 23.8046 25.1117C23.9816 25.0178 24.4755 24.7925 24.9041 24.6235C25.3421 24.4451 25.8732 24.1635 26.0968 23.9945C26.3205 23.8161 26.6373 23.6471 26.805 23.619C26.9727 23.5908 27.1964 23.4875 27.3175 23.3936C27.4386 23.2998 27.6623 23.1965 27.83 23.1589C27.9977 23.1214 28.445 22.9242 28.827 22.7177C29.2091 22.5111 29.6284 22.2858 29.7589 22.2107C29.8893 22.145 30.0757 22.0887 30.1875 22.0887C30.29 22.0887 30.4764 21.9854 30.5975 21.8539C30.7186 21.7225 30.9143 21.6192 31.0448 21.6192C31.1659 21.6192 31.5666 21.4315 31.9393 21.2062C32.3027 20.9714 32.722 20.7367 32.8804 20.6804C33.2997 20.5208 34.8652 19.7416 35.4615 19.3942C35.7504 19.2252 36.0672 19.0844 36.1604 19.0844C36.3468 19.0844 38.0147 18.2488 38.4527 17.939C38.6017 17.8357 38.7415 17.7794 38.7695 17.8076C38.8067 17.8357 38.9279 17.7982 39.0397 17.7231C39.5988 17.3569 40.4933 16.9251 40.6983 16.9251C40.8194 16.9251 41.1176 16.7749 41.3506 16.5965C41.5929 16.4181 41.8165 16.2679 41.8724 16.2679C41.9563 16.2679 43.3819 15.6201 43.8758 15.3572C44.0249 15.2727 44.4442 15.0662 44.7983 14.8878C45.1617 14.7 45.609 14.4559 45.8046 14.3339C45.991 14.2118 46.4196 14.0241 46.7364 13.9114C47.0626 13.7988 47.4073 13.6298 47.5192 13.5359C47.6217 13.4326 47.7428 13.3575 47.7894 13.3575C47.9758 13.3575 48.8423 12.8787 48.8982 12.7473C48.9262 12.6628 48.9914 12.6158 49.0473 12.6534C49.1685 12.7285 50.0257 12.353 50.2214 12.1276C50.3053 12.0338 50.4451 11.9493 50.5196 11.9493C50.5848 11.9493 50.883 11.8272 51.1625 11.6676C51.4421 11.5174 51.7589 11.386 51.8707 11.3766C51.9825 11.3766 52.1969 11.2921 52.3553 11.1888C52.5044 11.0949 52.7373 10.9635 52.8678 10.8978C53.4455 10.6161 53.4268 10.7288 53.4268 8.12821C53.4268 6.41953 53.3989 5.75296 53.3243 5.75296C53.1846 5.75296 52.5975 6.11911 52.3832 6.33504C52.29 6.42892 52.0757 6.50403 51.8987 6.50403C51.7216 6.50403 51.5539 6.54158 51.526 6.58852C51.498 6.63546 51.3675 6.70118 51.2371 6.72935C51.1066 6.7669 50.8085 6.93589 50.5755 7.11427C50.3426 7.29265 50.0351 7.47102 49.9046 7.49919C49.7648 7.53674 49.5505 7.62124 49.4387 7.69634C49.3176 7.77145 49.0473 7.84656 48.833 7.86533C48.5535 7.88411 48.3951 7.95922 48.2273 8.14698C48.0037 8.40986 47.016 8.94499 46.7458 8.94499C46.6712 8.94499 46.4755 9.04826 46.3078 9.1797C46.1401 9.31114 45.9537 9.41441 45.9071 9.41441C45.8512 9.41441 45.786 9.48952 45.758 9.59279C45.7394 9.68667 45.6183 9.78994 45.4971 9.81811C45.0499 9.92138 44.4442 10.1749 44.2206 10.3532C44.0901 10.4565 43.9317 10.541 43.8572 10.541C43.6242 10.541 42.5526 11.0949 42.4874 11.2451C42.4501 11.3578 42.3569 11.3766 42.1147 11.339C41.7885 11.2733 41.5276 11.4047 40.9592 11.9117C40.8381 12.0244 40.5772 12.137 40.3815 12.1652C40.1858 12.1934 39.8783 12.3248 39.692 12.4656C39.5149 12.6064 39.3192 12.6909 39.254 12.6534C39.1981 12.6158 39.0304 12.6722 38.8813 12.7848C38.7415 12.8881 38.5831 12.982 38.5365 12.982C38.3315 12.982 35.6759 14.4184 35.6479 14.5404C35.6293 14.6343 35.5547 14.6625 35.4243 14.6249C35.3124 14.5874 35.1727 14.6249 35.0609 14.7282C34.8838 14.8878 34.3993 15.1037 33.9893 15.207C33.8868 15.2258 33.6352 15.3948 33.4395 15.5732C33.2438 15.7515 33.0016 15.8924 32.9084 15.8924C32.6847 15.8924 32.3586 16.0613 32.2188 16.2491C32.1629 16.3242 32.0791 16.3618 32.0232 16.3336C31.9113 16.2679 31.1845 16.5402 30.5975 16.8687C30.3645 16.9908 29.9079 17.2349 29.5818 17.4039C29.2557 17.5729 28.9202 17.77 28.8364 17.8545C28.5568 18.1362 28.0816 18.4366 28.0071 18.3897C27.9605 18.3615 27.7741 18.4272 27.5877 18.5211C27.4014 18.6244 27.1871 18.7089 27.1218 18.7089C27.0473 18.7089 26.9168 18.7934 26.8143 18.906C26.7118 19.0187 26.5721 19.075 26.4602 19.0468C26.2646 18.9999 25.3234 19.4787 25.2675 19.6571C25.2489 19.704 25.0532 19.7885 24.8296 19.8448C24.6153 19.8918 24.2798 20.042 24.0934 20.164C23.9071 20.2955 23.7021 20.3988 23.6369 20.3988C23.4412 20.3988 22.5187 20.8776 22.3416 21.0653C22.2578 21.1592 22.1273 21.2437 22.0714 21.2437C22.0062 21.2437 21.9037 21.3094 21.8291 21.3939C21.7546 21.4784 21.6335 21.516 21.503 21.4878C21.3819 21.4503 21.2701 21.469 21.2421 21.516C21.1582 21.638 20.3476 22.0887 20.1985 22.0887C20.0773 22.0887 19.1642 22.5581 18.5399 22.943C18.3815 23.0369 18.1858 23.1402 18.1112 23.1777C18.0367 23.2059 17.841 23.2998 17.6919 23.3842C17.3378 23.572 17.2446 23.619 16.639 23.8818C16.3687 23.9945 16.0985 24.1541 16.0426 24.2198C15.9867 24.2949 15.7444 24.4357 15.5115 24.5484C15.2785 24.6517 14.8592 24.8394 14.589 24.9615C14.3188 25.0835 14.0578 25.1868 14.0113 25.1868C13.8435 25.1868 12.7347 25.8064 12.4738 26.0599C12.1942 26.3134 12.0917 26.351 11.719 26.3228C11.6072 26.3134 11.3649 26.4355 11.1879 26.5857C11.0108 26.7453 10.7592 26.8767 10.6288 26.8767C10.5076 26.8767 10.3492 26.9424 10.284 27.0175C10.2188 27.0926 10.1163 27.1584 10.0604 27.1584C10.0045 27.1584 9.79947 27.2616 9.61311 27.3931C9.42675 27.5245 9.18448 27.6278 9.08198 27.6278C8.83971 27.6278 8.24335 27.9 7.99176 28.1254C7.87994 28.2192 7.59108 28.3694 7.34881 28.4539C7.09723 28.5478 6.88291 28.6605 6.86427 28.7168C6.827 28.8201 11.542 31.1015 11.8029 31.1015C11.8774 31.1015 12.0079 31.0357 12.0917 30.9606Z" fill="#D4CEC5"/>
<path d="M91.4262 30.7163C91.4076 30.6505 91.3331 30.5754 91.2678 30.5567C91.1933 30.5285 91.156 30.566 91.184 30.6411C91.2026 30.7069 91.2772 30.782 91.3424 30.8008C91.4169 30.8289 91.4542 30.7914 91.4262 30.7163Z" fill="#D4CEC5"/>
<path d="M83.0581 28.8482C83.0581 28.8013 83.0115 28.7543 82.9649 28.7543C82.909 28.7543 82.8718 28.8013 82.8718 28.8482C82.8718 28.9045 82.909 28.9421 82.9649 28.9421C83.0115 28.9421 83.0581 28.9045 83.0581 28.8482Z" fill="#D4CEC5"/>
<path d="M40.3346 27.5339C40.2973 27.4776 40.2321 27.4588 40.1855 27.4869C40.0551 27.5714 40.083 27.6278 40.2507 27.6278C40.3253 27.6278 40.3626 27.5808 40.3346 27.5339Z" fill="#D4CEC5"/>
<path d="M75.6968 24.4916C75.6968 24.4165 75.6502 24.3226 75.6036 24.2945C75.5477 24.2663 75.5104 24.3226 75.5104 24.4259C75.5104 24.5386 75.5477 24.6231 75.6036 24.6231C75.6502 24.6231 75.6968 24.5667 75.6968 24.4916Z" fill="#D4CEC5"/>
<path d="M60.8346 24.2474C60.8067 24.2005 60.7601 24.1536 60.7321 24.1536C60.7135 24.1536 60.6948 24.2005 60.6948 24.2474C60.6948 24.3038 60.7414 24.3413 60.7973 24.3413C60.8439 24.3413 60.8626 24.3038 60.8346 24.2474Z" fill="#D4CEC5"/>
<path d="M30.2059 23.0176C30.1873 22.9519 30.1127 22.8768 30.0475 22.858C29.973 22.8299 29.9357 22.8674 29.9637 22.9425C29.9823 23.0083 30.0568 23.0834 30.1221 23.1021C30.1966 23.1303 30.2339 23.0928 30.2059 23.0176Z" fill="#D4CEC5"/>
<path d="M54.8244 21.4311C54.8244 21.3841 54.7778 21.3372 54.7219 21.3372C54.6753 21.3372 54.6566 21.3841 54.6846 21.4311C54.7126 21.4874 54.7591 21.525 54.7871 21.525C54.8057 21.525 54.8244 21.4874 54.8244 21.4311Z" fill="#D4CEC5"/>
<path d="M74.625 18.5209C74.597 18.4739 74.5225 18.427 74.4759 18.427C74.42 18.427 74.4107 18.4739 74.4386 18.5209C74.4666 18.5772 74.5411 18.6148 74.5877 18.6148C74.6436 18.6148 74.6529 18.5772 74.625 18.5209Z" fill="#D4CEC5"/>
<path d="M25.1463 17.4883C25.1743 17.4413 25.1556 17.3944 25.109 17.3944C25.0531 17.3944 25.0065 17.4413 25.0065 17.4883C25.0065 17.5446 25.0252 17.5821 25.0438 17.5821C25.0718 17.5821 25.1184 17.5446 25.1463 17.4883Z" fill="#D4CEC5"/>
<path d="M31.6225 15.4788C31.6225 15.3943 31.5759 15.3285 31.5293 15.3285C31.4734 15.3285 31.4361 15.3661 31.4361 15.413C31.4361 15.4694 31.4734 15.5351 31.5293 15.5632C31.5759 15.5914 31.6225 15.5539 31.6225 15.4788Z" fill="#D4CEC5"/>
<path d="M37.0265 12.8787C37.0265 12.8318 36.9799 12.813 36.9333 12.8412C36.8774 12.8693 36.8402 12.9163 36.8402 12.9444C36.8402 12.9632 36.8774 12.982 36.9333 12.982C36.9799 12.982 37.0265 12.9351 37.0265 12.8787Z" fill="#D4CEC5"/>
</svg>
