<svg width="20" height="18" viewBox="0 0 20 18" fill="none" xmlns="http://www.w3.org/2000/svg">
<path d="M4.27202 12.2455C4.37807 12.1364 4.52056 12.075 4.66969 12.075H18.4723C18.7241 12.075 18.8501 12.3886 18.6711 12.5693L15.9437 15.375C15.8377 15.4841 15.6952 15.5455 15.546 15.5455H1.74348C1.49162 15.5455 1.36569 15.2318 1.54465 15.0511L4.27202 12.2455Z" fill="#D4CEC5"/>
<path d="M4.27202 1.77275C4.37807 1.66366 4.52056 1.60229 4.66969 1.60229H18.4723C18.7241 1.60229 18.8501 1.91593 18.6711 2.09661L15.9437 4.89889C15.8377 5.00798 15.6952 5.06934 15.546 5.06934H1.74348C1.49162 5.06934 1.36569 4.7557 1.54465 4.57502L4.27202 1.77275Z" fill="#D4CEC5"/>
<path d="M15.9437 6.97496C15.8377 6.86587 15.6952 6.8045 15.546 6.8045H1.74348C1.49162 6.8045 1.36569 7.11814 1.54465 7.29882L4.27202 10.1011C4.37807 10.2102 4.52056 10.2715 4.66969 10.2715H18.4723C18.7241 10.2715 18.8501 9.95791 18.6711 9.77723L15.9437 6.97496Z" fill="#D4CEC5"/>
</svg>
