<svg width="91" height="163" viewBox="0 0 91 163" fill="none" xmlns="http://www.w3.org/2000/svg">
<path d="M83.9 129.715H81.0409L78.0054 132.786V169H83.9V129.715ZM9.17711 129.715H6.31809V169H12.2126V132.786L9.17711 129.715ZM26.0842 169H18.1071V136.527H72.1109V169H64.1339V150.646C64.1339 148.175 62.1573 146.057 59.7218 146.057C57.2863 146.057 55.3097 148.175 55.3097 150.646V169H49.5211V150.646C49.5211 148.175 47.5445 146.057 45.109 146.057C42.6736 146.057 40.697 148.175 40.697 150.646V169H34.9083V150.646C34.9083 148.175 32.9317 146.057 30.4962 146.057C28.0608 146.057 26.0842 148.175 26.0842 150.646V169ZM17.6836 132.115H72.5345L79.4879 125.197H89.0533V119.302H77.0524L70.099 126.256H20.119L13.1656 119.302H1.16479V125.197H10.7302L17.6836 132.115ZM18.2483 114.961H71.9697L66.6752 120.255H23.5428L18.2483 114.961ZM78.0054 56.9687V113.196H83.9V56.9687H78.0054ZM6.31809 56.9687V113.196H12.2126V56.9687H6.31809ZM71.8638 56.9687H18.3542V110.443H71.8638V56.9687ZM69.8166 83.7235C69.8166 97.348 58.7335 108.396 45.109 108.396C31.4845 108.396 20.4014 97.348 20.4014 83.7235C20.4014 70.099 31.4845 59.0159 45.109 59.0159C58.7335 59.0159 69.8166 70.099 69.8166 83.7235ZM24.8135 83.7235C24.8135 94.9125 33.92 103.984 45.109 103.984C56.298 103.984 65.4046 94.9125 65.4046 83.7235C65.4046 72.5345 56.298 63.4279 45.109 63.4279C33.92 63.4279 24.8135 72.5345 24.8135 83.7235ZM32.5434 91.4887L46.2385 79.1349C45.8503 78.076 45.6385 77.2642 45.6032 76.6289C45.4973 75.7465 45.6385 75.1111 45.9208 74.6523C46.3797 73.911 47.2621 73.5228 48.4269 73.3463C50.5447 73.0286 53.9332 73.2757 56.6863 70.5226L58.3099 72.1462L58.1688 72.2874C55.5568 75.0052 55.8039 78.3231 55.4509 80.4056C55.2744 81.5704 54.8862 82.4175 54.1803 82.8764C53.6861 83.194 53.0508 83.3352 52.2036 83.2293C51.533 83.1587 50.7212 82.947 49.6976 82.5587L37.3438 96.2538L32.5434 91.4887ZM5.85923 51.4271H84.3588L90.218 45.5679L86.0531 41.4029L81.9234 45.5326H8.2947L4.165 41.4029L0 45.5679L5.85923 51.4271ZM39.2498 0H50.9683L75.817 39.6734H14.401L39.2498 0ZM40.697 32.3317H49.5211V22.131C49.5211 19.6955 47.5445 17.7189 45.109 17.7189C42.6736 17.7189 40.697 19.6955 40.697 22.131V32.3317Z" fill="#3B3A38"/>
</svg>
